M48
FMAT,2
INCH,LZ
T01C.029
T02C.035
T03C.04
%
T01
X00325Y003
Y004
Y005
Y006
Y007
Y008
Y009
Y01
Y011
Y012
Y013
Y014
Y015
Y016
Y017
Y018
Y019
Y02
Y021
Y022
X00925
Y021
Y02
Y019
Y018
Y017
Y016
Y015
Y014
Y013
Y012
Y011
Y01
Y009
Y008
Y007
Y006
Y005
Y004
Y003
X0105Y005
X0125
X01375
Y006
Y007
Y008
Y009
Y01
Y011
Y012
Y013
Y014
Y015
Y016
Y017
Y018
Y019
Y02
Y021
Y022
X0125Y018
X0105
Y016
Y015
Y014
X0125
Y015
Y016
X01525Y01
Y009
X01625
Y01
X0155Y008
Y007
Y006
Y005
Y004
Y003
Y002
X01375Y003
Y004
X0125Y007
Y008
Y009
X0105
Y008
Y007
X0185
Y006
Y005
Y004
Y003
Y002
X01975Y003
Y004
Y005
Y006
Y007
Y008
Y009
Y01
Y011
Y012
Y013
Y014
Y015
Y016
Y017
Y018
Y019
Y02
Y021
Y022
X02325Y0215
Y023
X02525
Y0215
Y0195
Y0185
Y0175
X02325
Y0185
Y0195
Y015
X02525
X022Y01125
X021Y01025
X022Y00925
Y00825
X021Y00725
X022Y00625
X02325Y006
Y007
X02525
Y006
Y005
X02325
Y009
X02525
X0185Y008
T02
X0115Y003
Y004
Y005
Y006
Y007
Y008
Y009
Y01
Y011
Y012
Y013
Y014
Y015
Y016
Y017
Y018
Y019
Y02
Y021
Y022
X0175
Y021
Y02
Y019
Y018
Y017
Y016
Y015
Y014
Y013
Y012
Y011
Y01
Y009
Y008
Y007
Y006
Y005
Y004
Y003
X02125Y002
T03
X002Y02075
Y023
X02325Y013
X02525
Y002
X02325
M30
