G04*
%FSLAX23Y23*%
%MOIN*%
%LNInnerCopperUpper*%
%ADD10C,.01*%
%ADD11C,.012*%
%ADD12C,.015*%
%ADD13C,.034*%
%ADD14C,.036*%
%ADD15C,.039*%
%ADD16R,.006X.006*%
%ADD17R,.012X.012*%
%ADD18R,.067X.067*%
%ADD19R,.069X.069*%
%ADD20R,.08X.08*%
%ADD21R,.091X.091*%
%ADD22R,.093X.093*%
%ADD23R,.104X.104*%
G36*
G01X15Y2485D02*
X2675D01*
Y15D01*
X15D01*
Y2485D01*
G37*
%LPC*%
D13*
X1750Y2100D02*
X1975D01*
X1750Y2000D02*
X1975D01*
X1750Y1900D02*
X1975D01*
X1750Y1800D02*
X1975D01*
X1750Y1700D02*
X1975D01*
X1750Y1600D02*
X1975D01*
X1750Y1500D02*
X1975D01*
Y1300D02*
X1750D01*
X1975Y1100D02*
X1750D01*
X1975Y1000D02*
X1750D01*
Y900D02*
X1975D01*
X1750Y2100D02*
X1650Y2150D01*
X1025D01*
X925Y2100D01*
X1750Y2000D02*
X1650Y2050D01*
X1025D01*
X925Y2000D01*
X1750Y1900D02*
X1650Y1950D01*
X1025D01*
X925Y1900D01*
X1750Y1800D02*
X1650Y1850D01*
X1000D01*
X925Y1800D01*
X1750Y1700D02*
X1650Y1750D01*
X1000D01*
X925Y1700D01*
X1750Y1600D02*
X1650Y1650D01*
X1000D01*
X925Y1600D01*
X1750Y1500D02*
X1650Y1550D01*
X1000D01*
X925Y1500D01*
X1750Y1400D02*
X1650Y1450D01*
X1000D01*
X925Y1400D01*
X1750Y1300D02*
X1650Y1350D01*
X1000D01*
X925Y1300D01*
X1750Y1200D02*
X1650Y1250D01*
X1025D01*
X925Y1200D01*
X1750Y1100D02*
X1650Y1150D01*
X1025D01*
X925Y1100D01*
X1750Y1000D02*
X1675Y1050D01*
X1025D01*
X925Y1000D01*
X1750Y800D02*
X1650Y750D01*
X1000D01*
X925Y800D01*
X1000Y650D02*
X925Y700D01*
X1750Y600D02*
X1650Y550D01*
X1000D01*
X925Y600D01*
X1750Y500D02*
X1650Y450D01*
X1000D01*
X925Y500D01*
X1750Y400D02*
X1650Y350D01*
X1025D01*
X925Y400D01*
X1750Y300D02*
X1650Y250D01*
X1025D01*
X925Y300D01*
X1000Y650D02*
X1650D01*
X1750Y700D01*
Y1200D02*
X1975D01*
X1750Y1400D02*
X1975D01*
X1000Y950D02*
X1675D01*
X1750Y900D01*
X1000Y950D02*
X925Y900D01*
X1975Y700D02*
X1900Y650D01*
X1800D01*
X1750Y700D01*
Y600D02*
X1800Y550D01*
X1900D01*
X1975Y600D01*
Y500D02*
X1900Y450D01*
X1800D01*
X1750Y400D02*
X1800Y350D01*
X1900D01*
X1975Y400D01*
X1800Y450D02*
X1750Y500D01*
Y300D02*
X1800Y250D01*
X1900D01*
X1975Y300D01*
X1750Y800D02*
X1800Y750D01*
X1900D01*
X1975Y800D01*
D14*
X2400Y2200D02*
Y2150D01*
X2325D02*
X2400D01*
Y900D01*
X2325D01*
X266Y2250D02*
Y2075D01*
X200D01*
X2450Y2250D02*
Y2150D01*
X2525D01*
X2450D02*
Y900D01*
X2525D01*
X200Y2300D02*
X2250D01*
Y2250D01*
X2450D01*
X266D02*
X2200D01*
Y2200D01*
X2400D01*
D15*
X2100Y725D02*
X2025Y850D01*
X1700D01*
X1625Y900D01*
D21*
X1150Y2200D03*
Y2100D03*
Y2000D03*
Y1900D03*
Y1800D03*
Y1700D03*
Y1600D03*
Y1500D03*
Y1400D03*
X2325Y2300D03*
X1550Y800D03*
X2525Y1500D03*
X2325D03*
X1550Y700D03*
Y600D03*
Y500D03*
D17*
X1511Y412D02*
Y439D01*
X1538D01*
X1562D02*
X1589D01*
Y412D01*
Y388D02*
Y361D01*
X1562D01*
X1538D02*
X1511D01*
Y388D01*
D21*
X1550Y300D03*
D17*
X1511Y212D02*
Y239D01*
X1538D01*
X1562D02*
X1589D01*
Y212D01*
Y188D02*
Y161D01*
X1562D01*
X1538D02*
X1511D01*
Y188D01*
D21*
X1850Y200D03*
D17*
X1811Y312D02*
Y339D01*
X1838D01*
X1862D02*
X1889D01*
Y312D01*
Y288D02*
Y261D01*
X1862D01*
X1838D02*
X1811D01*
Y288D01*
D21*
X1850Y400D03*
D17*
X1811Y512D02*
Y539D01*
X1838D01*
X1862D02*
X1889D01*
Y512D01*
Y488D02*
Y461D01*
X1862D01*
X1838D02*
X1811D01*
Y488D01*
D21*
X1850Y600D03*
D17*
X1811Y712D02*
Y739D01*
X1838D01*
X1862D02*
X1889D01*
Y712D01*
Y688D02*
Y661D01*
X1862D01*
X1838D02*
X1811D01*
Y688D01*
D21*
X1850Y800D03*
X1150Y1300D03*
Y1200D03*
Y1100D03*
Y1000D03*
Y900D03*
Y800D03*
Y700D03*
Y600D03*
Y500D03*
Y400D03*
D17*
X1111Y312D02*
Y339D01*
X1138D01*
X1162D02*
X1189D01*
Y312D01*
Y288D02*
Y261D01*
X1162D01*
X1138D02*
X1111D01*
Y288D01*
D21*
X1750Y300D03*
Y400D03*
Y500D03*
Y600D03*
Y700D03*
Y800D03*
Y900D03*
Y1000D03*
Y1100D03*
Y1200D03*
Y1300D03*
Y1400D03*
Y1500D03*
Y1600D03*
Y1700D03*
Y1800D03*
Y1900D03*
Y2000D03*
Y2100D03*
Y2200D03*
X325D03*
Y2100D03*
Y2000D03*
Y1900D03*
Y1800D03*
Y1700D03*
Y1600D03*
Y1500D03*
Y1400D03*
Y1300D03*
Y1200D03*
Y1100D03*
Y1000D03*
Y900D03*
Y800D03*
Y700D03*
Y600D03*
Y500D03*
Y400D03*
D17*
X286Y312D02*
Y339D01*
X313D01*
X337D02*
X364D01*
Y312D01*
Y288D02*
Y261D01*
X337D01*
X313D02*
X286D01*
Y288D01*
D21*
X925Y300D03*
Y400D03*
Y500D03*
Y600D03*
Y700D03*
Y800D03*
Y900D03*
Y1000D03*
Y1100D03*
Y1200D03*
Y1300D03*
Y1400D03*
Y1500D03*
Y1600D03*
Y1700D03*
Y1800D03*
Y1900D03*
Y2000D03*
Y2100D03*
Y2200D03*
D17*
X2161Y1137D02*
Y1164D01*
X2188D01*
X2212D02*
X2239D01*
Y1137D01*
Y1113D02*
Y1086D01*
X2212D01*
X2188D02*
X2161D01*
Y1113D01*
D21*
X2200Y925D03*
X2100Y1025D03*
D17*
X2161Y837D02*
Y864D01*
X2188D01*
X2212D02*
X2239D01*
Y837D01*
Y813D02*
Y786D01*
X2212D01*
X2188D02*
X2161D01*
Y813D01*
D21*
X2200Y625D03*
X2100Y725D03*
X1375Y2200D03*
Y2100D03*
Y2000D03*
Y1900D03*
Y1800D03*
Y1700D03*
Y1600D03*
Y1500D03*
Y1400D03*
Y1300D03*
Y1200D03*
Y1100D03*
Y1000D03*
Y900D03*
Y800D03*
Y700D03*
Y600D03*
Y500D03*
Y400D03*
D17*
X1336Y312D02*
Y339D01*
X1363D01*
X1387D02*
X1414D01*
Y312D01*
Y288D02*
Y261D01*
X1387D01*
X1363D02*
X1336D01*
Y288D01*
D21*
X1975Y300D03*
Y400D03*
Y500D03*
Y600D03*
Y700D03*
Y800D03*
Y900D03*
Y1000D03*
Y1100D03*
Y1200D03*
Y1300D03*
Y1400D03*
Y1500D03*
Y1600D03*
Y1700D03*
Y1800D03*
Y1900D03*
Y2000D03*
Y2100D03*
Y2200D03*
X1625Y900D03*
X1525D03*
X1625Y1000D03*
X1525D03*
X2525Y2150D03*
X2325D03*
X2525Y1950D03*
X2325D03*
X2525Y1850D03*
X2325D03*
Y1750D03*
X2525D03*
Y900D03*
X2325D03*
X2525Y700D03*
X2325D03*
X2525Y600D03*
X2325D03*
Y500D03*
X2525D03*
X1250Y1800D03*
X1050D03*
X1250Y1600D03*
X1050D03*
X1250Y1500D03*
X1050D03*
Y1400D03*
X1250D03*
X1050Y500D03*
X1250D03*
X1050Y700D03*
X1250D03*
X1050Y800D03*
X1250D03*
Y900D03*
X1050D03*
D22*
X2525Y2300D03*
D23*
X2525Y200D03*
X2325D03*
X200Y2075D03*
Y2300D03*
X2325Y1300D03*
X2525D03*
D17*
X2079Y212D02*
Y246D01*
X2113D01*
X2137D02*
X2171D01*
Y212D01*
Y188D02*
Y154D01*
X2137D01*
X2113D02*
X2079D01*
Y188D01*
%LPD*%
D10*
X1750Y2100D02*
X1975D01*
X1750Y2000D02*
X1975D01*
X1750Y1900D02*
X1975D01*
X1750Y1800D02*
X1975D01*
X1750Y1700D02*
X1975D01*
X1750Y1600D02*
X1975D01*
X1750Y1500D02*
X1975D01*
Y1300D02*
X1750D01*
X1975Y1100D02*
X1750D01*
X1975Y1000D02*
X1750D01*
Y900D02*
X1975D01*
X1750Y2100D02*
X1650Y2150D01*
X1025D01*
X925Y2100D01*
X1750Y2000D02*
X1650Y2050D01*
X1025D01*
X925Y2000D01*
X1750Y1900D02*
X1650Y1950D01*
X1025D01*
X925Y1900D01*
X1750Y1800D02*
X1650Y1850D01*
X1000D01*
X925Y1800D01*
X1750Y1700D02*
X1650Y1750D01*
X1000D01*
X925Y1700D01*
X1750Y1600D02*
X1650Y1650D01*
X1000D01*
X925Y1600D01*
X1750Y1500D02*
X1650Y1550D01*
X1000D01*
X925Y1500D01*
X1750Y1400D02*
X1650Y1450D01*
X1000D01*
X925Y1400D01*
X1750Y1300D02*
X1650Y1350D01*
X1000D01*
X925Y1300D01*
X1750Y1200D02*
X1650Y1250D01*
X1025D01*
X925Y1200D01*
X1750Y1100D02*
X1650Y1150D01*
X1025D01*
X925Y1100D01*
X1750Y1000D02*
X1675Y1050D01*
X1025D01*
X925Y1000D01*
X1750Y800D02*
X1650Y750D01*
X1000D01*
X925Y800D01*
X1000Y650D02*
X925Y700D01*
X1750Y600D02*
X1650Y550D01*
X1000D01*
X925Y600D01*
X1750Y500D02*
X1650Y450D01*
X1000D01*
X925Y500D01*
X1750Y400D02*
X1650Y350D01*
X1025D01*
X925Y400D01*
X1750Y300D02*
X1650Y250D01*
X1025D01*
X925Y300D01*
X1000Y650D02*
X1650D01*
X1750Y700D01*
Y1200D02*
X1975D01*
X1750Y1400D02*
X1975D01*
X1000Y950D02*
X1675D01*
X1750Y900D01*
X1000Y950D02*
X925Y900D01*
X1975Y700D02*
X1900Y650D01*
X1800D01*
X1750Y700D01*
Y600D02*
X1800Y550D01*
X1900D01*
X1975Y600D01*
Y500D02*
X1900Y450D01*
X1800D01*
X1750Y400D02*
X1800Y350D01*
X1900D01*
X1975Y400D01*
X1800Y450D02*
X1750Y500D01*
Y300D02*
X1800Y250D01*
X1900D01*
X1975Y300D01*
X1750Y800D02*
X1800Y750D01*
X1900D01*
X1975Y800D01*
D11*
X2400Y2200D02*
Y2150D01*
X2325D02*
X2400D01*
Y900D01*
X2325D01*
X266Y2250D02*
Y2075D01*
X200D01*
X2450Y2250D02*
Y2150D01*
X2525D01*
X2450D02*
Y900D01*
X2525D01*
X200Y2300D02*
X2250D01*
Y2250D01*
X2450D01*
X266D02*
X2200D01*
Y2200D01*
X2400D01*
D12*
X2100Y725D02*
X2025Y850D01*
X1700D01*
X1625Y900D01*
D18*
X1150Y2200D03*
Y2100D03*
Y2000D03*
Y1900D03*
Y1800D03*
Y1700D03*
Y1600D03*
Y1500D03*
Y1400D03*
X2325Y2300D03*
X1550Y800D03*
X2525Y1500D03*
X2325D03*
X1550Y700D03*
Y600D03*
Y500D03*
Y400D03*
Y300D03*
Y200D03*
X1850D03*
Y300D03*
Y400D03*
Y500D03*
Y600D03*
Y700D03*
Y800D03*
X1150Y1300D03*
Y1200D03*
Y1100D03*
Y1000D03*
Y900D03*
Y800D03*
Y700D03*
Y600D03*
Y500D03*
Y400D03*
Y300D03*
X1750D03*
Y400D03*
Y500D03*
Y600D03*
Y700D03*
Y800D03*
Y900D03*
Y1000D03*
Y1100D03*
Y1200D03*
Y1300D03*
Y1400D03*
Y1500D03*
Y1600D03*
Y1700D03*
Y1800D03*
Y1900D03*
Y2000D03*
Y2100D03*
Y2200D03*
X325D03*
Y2100D03*
Y2000D03*
Y1900D03*
Y1800D03*
Y1700D03*
Y1600D03*
Y1500D03*
Y1400D03*
Y1300D03*
Y1200D03*
Y1100D03*
Y1000D03*
Y900D03*
Y800D03*
Y700D03*
Y600D03*
Y500D03*
Y400D03*
Y300D03*
X925D03*
Y400D03*
Y500D03*
Y600D03*
Y700D03*
Y800D03*
Y900D03*
Y1000D03*
Y1100D03*
Y1200D03*
Y1300D03*
Y1400D03*
Y1500D03*
Y1600D03*
Y1700D03*
Y1800D03*
Y1900D03*
Y2000D03*
Y2100D03*
Y2200D03*
X2200Y1125D03*
Y925D03*
X2100Y1025D03*
X2200Y825D03*
Y625D03*
X2100Y725D03*
X1375Y2200D03*
Y2100D03*
Y2000D03*
Y1900D03*
Y1800D03*
Y1700D03*
Y1600D03*
Y1500D03*
Y1400D03*
Y1300D03*
Y1200D03*
Y1100D03*
Y1000D03*
Y900D03*
Y800D03*
Y700D03*
Y600D03*
Y500D03*
Y400D03*
Y300D03*
X1975D03*
Y400D03*
Y500D03*
Y600D03*
Y700D03*
Y800D03*
Y900D03*
Y1000D03*
Y1100D03*
Y1200D03*
Y1300D03*
Y1400D03*
Y1500D03*
Y1600D03*
Y1700D03*
Y1800D03*
Y1900D03*
Y2000D03*
Y2100D03*
Y2200D03*
X1625Y900D03*
X1525D03*
X1625Y1000D03*
X1525D03*
X2525Y2150D03*
X2325D03*
X2525Y1950D03*
X2325D03*
X2525Y1850D03*
X2325D03*
Y1750D03*
X2525D03*
Y900D03*
X2325D03*
X2525Y700D03*
X2325D03*
X2525Y600D03*
X2325D03*
Y500D03*
X2525D03*
X1250Y1800D03*
X1050D03*
X1250Y1600D03*
X1050D03*
X1250Y1500D03*
X1050D03*
Y1400D03*
X1250D03*
X1050Y500D03*
X1250D03*
X1050Y700D03*
X1250D03*
X1050Y800D03*
X1250D03*
Y900D03*
X1050D03*
D19*
X2525Y2300D03*
D20*
X2525Y200D03*
X2325D03*
X200Y2075D03*
Y2300D03*
X2325Y1300D03*
X2525D03*
X2125Y200D03*
M02*
