%FSLAX23Y23*%
%MOIN*%
%LNTopCopper*%
%ADD10C,.012*%
%ADD11C,.015*%
%ADD12C,.036*%
%ADD13C,.039*%
%ADD14R,.006X.006*%
%ADD15R,.012X.012*%
%ADD16R,.067X.067*%
%ADD17R,.069X.069*%
%ADD18R,.08X.08*%
%ADD19R,.091X.091*%
%ADD20R,.093X.093*%
%ADD21R,.104X.104*%
G36*
G01X25Y2475D02*
X2675D01*
Y25D01*
X25D01*
Y2475D01*
G37*
%LPC*%
D12*
X1850Y2300D02*
X1750D01*
Y2200D01*
X1050Y1800D02*
Y2250D01*
X266D01*
Y2075D01*
X200D01*
X1250Y2300D02*
Y1800D01*
X1750Y2300D02*
X1300D01*
Y1500D01*
X1250D01*
X925Y2200D02*
X1000D01*
Y1450D01*
X1200D01*
X1250Y1400D01*
Y2300D02*
X200D01*
X1850D02*
Y800D01*
D13*
X1150Y900D02*
X1250Y800D01*
Y700D02*
X1313Y756D01*
Y846D01*
X1375Y900D01*
D19*
X1150Y2200D03*
Y2100D03*
Y2000D03*
Y1900D03*
Y1800D03*
Y1700D03*
Y1600D03*
Y1500D03*
Y1400D03*
X2325Y2300D03*
X1550Y800D03*
X2525Y1500D03*
X2325D03*
X1550Y700D03*
Y600D03*
Y500D03*
Y400D03*
Y300D03*
Y200D03*
X1850D03*
Y300D03*
Y400D03*
Y500D03*
Y600D03*
Y700D03*
Y800D03*
X1150Y1300D03*
Y1200D03*
Y1100D03*
Y1000D03*
Y900D03*
Y800D03*
Y700D03*
Y600D03*
Y500D03*
Y400D03*
D15*
X1111Y312D02*
Y339D01*
X1138D01*
X1162D02*
X1189D01*
Y312D01*
Y288D02*
Y261D01*
X1162D01*
X1138D02*
X1111D01*
Y288D01*
D19*
X1750Y300D03*
Y400D03*
Y500D03*
Y600D03*
Y700D03*
Y800D03*
Y900D03*
Y1000D03*
Y1100D03*
Y1200D03*
Y1300D03*
Y1400D03*
Y1500D03*
Y1600D03*
Y1700D03*
Y1800D03*
Y1900D03*
Y2000D03*
Y2100D03*
Y2200D03*
X325D03*
Y2100D03*
Y2000D03*
Y1900D03*
Y1800D03*
Y1700D03*
Y1600D03*
Y1500D03*
Y1400D03*
Y1300D03*
Y1200D03*
Y1100D03*
Y1000D03*
Y900D03*
Y800D03*
Y700D03*
Y600D03*
Y500D03*
Y400D03*
Y300D03*
X925D03*
Y400D03*
Y500D03*
Y600D03*
Y700D03*
Y800D03*
Y900D03*
Y1000D03*
Y1100D03*
Y1200D03*
Y1300D03*
Y1400D03*
Y1500D03*
Y1600D03*
Y1700D03*
Y1800D03*
Y1900D03*
Y2000D03*
Y2100D03*
Y2200D03*
X2200Y1125D03*
Y925D03*
X2100Y1025D03*
X2200Y825D03*
Y625D03*
X2100Y725D03*
X1375Y2200D03*
Y2100D03*
Y2000D03*
Y1900D03*
Y1800D03*
Y1700D03*
Y1600D03*
Y1500D03*
Y1400D03*
Y1300D03*
Y1200D03*
Y1100D03*
Y1000D03*
Y900D03*
Y800D03*
Y700D03*
Y600D03*
Y500D03*
Y400D03*
Y300D03*
X1975D03*
Y400D03*
Y500D03*
Y600D03*
Y700D03*
Y800D03*
Y900D03*
Y1000D03*
Y1100D03*
Y1200D03*
Y1300D03*
Y1400D03*
Y1500D03*
Y1600D03*
Y1700D03*
Y1800D03*
Y1900D03*
Y2000D03*
Y2100D03*
Y2200D03*
X1625Y900D03*
X1525D03*
X1625Y1000D03*
X1525D03*
X2525Y2150D03*
X2325D03*
X2525Y1950D03*
X2325D03*
X2525Y1850D03*
X2325D03*
Y1750D03*
X2525D03*
Y900D03*
X2325D03*
X2525Y700D03*
X2325D03*
X2525Y600D03*
X2325D03*
Y500D03*
X2525D03*
X1250Y1800D03*
X1050D03*
X1250Y1600D03*
X1050D03*
X1250Y1500D03*
X1050D03*
Y1400D03*
X1250D03*
X1050Y500D03*
X1250D03*
X1050Y700D03*
X1250D03*
X1050Y800D03*
X1250D03*
Y900D03*
X1050D03*
D20*
X2525Y2300D03*
D21*
X2525Y200D03*
X2325D03*
X200Y2075D03*
Y2300D03*
X2325Y1300D03*
X2525D03*
D15*
X2079Y212D02*
Y246D01*
X2113D01*
X2137D02*
X2171D01*
Y212D01*
Y188D02*
Y154D01*
X2137D01*
X2113D02*
X2079D01*
Y188D01*
%LPD*%
D10*
X1850Y2300D02*
X1750D01*
Y2200D01*
X1050Y1800D02*
Y2250D01*
X266D01*
Y2075D01*
X200D01*
X1250Y2300D02*
Y1800D01*
X1750Y2300D02*
X1300D01*
Y1500D01*
X1250D01*
X925Y2200D02*
X1000D01*
Y1450D01*
X1200D01*
X1250Y1400D01*
Y2300D02*
X200D01*
X1850D02*
Y800D01*
D11*
X1150Y900D02*
X1250Y800D01*
Y700D02*
X1313Y756D01*
Y846D01*
X1375Y900D01*
D16*
X1150Y2200D03*
Y2100D03*
Y2000D03*
Y1900D03*
Y1800D03*
Y1700D03*
Y1600D03*
Y1500D03*
Y1400D03*
X2325Y2300D03*
X1550Y800D03*
X2525Y1500D03*
X2325D03*
X1550Y700D03*
Y600D03*
Y500D03*
Y400D03*
Y300D03*
Y200D03*
X1850D03*
Y300D03*
Y400D03*
Y500D03*
Y600D03*
Y700D03*
Y800D03*
X1150Y1300D03*
Y1200D03*
Y1100D03*
Y1000D03*
Y900D03*
Y800D03*
Y700D03*
Y600D03*
Y500D03*
Y400D03*
Y300D03*
X1750D03*
Y400D03*
Y500D03*
Y600D03*
Y700D03*
Y800D03*
Y900D03*
Y1000D03*
Y1100D03*
Y1200D03*
Y1300D03*
Y1400D03*
Y1500D03*
Y1600D03*
Y1700D03*
Y1800D03*
Y1900D03*
Y2000D03*
Y2100D03*
Y2200D03*
X325D03*
Y2100D03*
Y2000D03*
Y1900D03*
Y1800D03*
Y1700D03*
Y1600D03*
Y1500D03*
Y1400D03*
Y1300D03*
Y1200D03*
Y1100D03*
Y1000D03*
Y900D03*
Y800D03*
Y700D03*
Y600D03*
Y500D03*
Y400D03*
Y300D03*
X925D03*
Y400D03*
Y500D03*
Y600D03*
Y700D03*
Y800D03*
Y900D03*
Y1000D03*
Y1100D03*
Y1200D03*
Y1300D03*
Y1400D03*
Y1500D03*
Y1600D03*
Y1700D03*
Y1800D03*
Y1900D03*
Y2000D03*
Y2100D03*
Y2200D03*
X2200Y1125D03*
Y925D03*
X2100Y1025D03*
X2200Y825D03*
Y625D03*
X2100Y725D03*
X1375Y2200D03*
Y2100D03*
Y2000D03*
Y1900D03*
Y1800D03*
Y1700D03*
Y1600D03*
Y1500D03*
Y1400D03*
Y1300D03*
Y1200D03*
Y1100D03*
Y1000D03*
Y900D03*
Y800D03*
Y700D03*
Y600D03*
Y500D03*
Y400D03*
Y300D03*
X1975D03*
Y400D03*
Y500D03*
Y600D03*
Y700D03*
Y800D03*
Y900D03*
Y1000D03*
Y1100D03*
Y1200D03*
Y1300D03*
Y1400D03*
Y1500D03*
Y1600D03*
Y1700D03*
Y1800D03*
Y1900D03*
Y2000D03*
Y2100D03*
Y2200D03*
X1625Y900D03*
X1525D03*
X1625Y1000D03*
X1525D03*
X2525Y2150D03*
X2325D03*
X2525Y1950D03*
X2325D03*
X2525Y1850D03*
X2325D03*
Y1750D03*
X2525D03*
Y900D03*
X2325D03*
X2525Y700D03*
X2325D03*
X2525Y600D03*
X2325D03*
Y500D03*
X2525D03*
X1250Y1800D03*
X1050D03*
X1250Y1600D03*
X1050D03*
X1250Y1500D03*
X1050D03*
Y1400D03*
X1250D03*
X1050Y500D03*
X1250D03*
X1050Y700D03*
X1250D03*
X1050Y800D03*
X1250D03*
Y900D03*
X1050D03*
D17*
X2525Y2300D03*
D18*
X2525Y200D03*
X2325D03*
X200Y2075D03*
Y2300D03*
X2325Y1300D03*
X2525D03*
X2125Y200D03*
M02*
