%FSLAX23Y23*%
%MOIN*%
%LNBottomCopper*%
%ADD10C,.012*%
%ADD11C,.036*%
%ADD12R,.006X.006*%
%ADD13R,.012X.012*%
%ADD14R,.067X.067*%
%ADD15R,.069X.069*%
%ADD16R,.08X.08*%
%ADD17R,.091X.091*%
%ADD18R,.093X.093*%
%ADD19R,.104X.104*%
G36*
G01X25Y2475D02*
X2675D01*
Y25D01*
X25D01*
Y2475D01*
G37*
%LPC*%
D11*
X1050Y500D02*
Y225D01*
X264D01*
X1250Y500D02*
Y175D01*
X200D01*
X1150Y1000D02*
X1100Y1050D01*
X1050D02*
X425D01*
X1300Y2300D02*
X1975D01*
Y2200D01*
X1050Y1050D02*
Y1400D01*
X1100Y1050D02*
Y1450D01*
X1050Y1500D01*
X264Y225D02*
X266Y2300D01*
X200D01*
Y175D02*
Y2075D01*
X1300Y2300D02*
Y1600D01*
X1250D01*
X1100Y1550D02*
X1050Y1600D01*
X425Y1050D02*
X325Y1000D01*
X1250D02*
X1375D01*
X1100Y1550D02*
X1200D01*
X1250Y1000D02*
X1200Y1050D01*
Y1550D01*
D17*
X1150Y2200D03*
Y2100D03*
Y2000D03*
Y1900D03*
Y1800D03*
Y1700D03*
Y1600D03*
Y1500D03*
Y1400D03*
X2325Y2300D03*
X1550Y800D03*
X2525Y1500D03*
X2325D03*
X1550Y700D03*
Y600D03*
Y500D03*
Y400D03*
Y300D03*
Y200D03*
X1850D03*
Y300D03*
Y400D03*
Y500D03*
Y600D03*
Y700D03*
Y800D03*
X1150Y1300D03*
Y1200D03*
Y1100D03*
Y1000D03*
Y900D03*
Y800D03*
Y700D03*
Y600D03*
Y500D03*
Y400D03*
D13*
X1111Y312D02*
Y339D01*
X1138D01*
X1162D02*
X1189D01*
Y312D01*
Y288D02*
Y261D01*
X1162D01*
X1138D02*
X1111D01*
Y288D01*
D17*
X1750Y300D03*
Y400D03*
Y500D03*
Y600D03*
Y700D03*
Y800D03*
Y900D03*
Y1000D03*
Y1100D03*
Y1200D03*
Y1300D03*
Y1400D03*
Y1500D03*
Y1600D03*
Y1700D03*
Y1800D03*
Y1900D03*
Y2000D03*
Y2100D03*
Y2200D03*
X325D03*
Y2100D03*
Y2000D03*
Y1900D03*
Y1800D03*
Y1700D03*
Y1600D03*
Y1500D03*
Y1400D03*
Y1300D03*
Y1200D03*
Y1100D03*
Y1000D03*
Y900D03*
Y800D03*
Y700D03*
Y600D03*
Y500D03*
Y400D03*
Y300D03*
X925D03*
Y400D03*
Y500D03*
Y600D03*
Y700D03*
Y800D03*
Y900D03*
Y1000D03*
Y1100D03*
Y1200D03*
Y1300D03*
Y1400D03*
Y1500D03*
Y1600D03*
Y1700D03*
Y1800D03*
Y1900D03*
Y2000D03*
Y2100D03*
Y2200D03*
X2200Y1125D03*
Y925D03*
X2100Y1025D03*
X2200Y825D03*
Y625D03*
X2100Y725D03*
X1375Y2200D03*
Y2100D03*
Y2000D03*
Y1900D03*
Y1800D03*
Y1700D03*
Y1600D03*
Y1500D03*
Y1400D03*
Y1300D03*
Y1200D03*
Y1100D03*
Y1000D03*
Y900D03*
Y800D03*
Y700D03*
Y600D03*
Y500D03*
Y400D03*
Y300D03*
X1975D03*
Y400D03*
Y500D03*
Y600D03*
Y700D03*
Y800D03*
Y900D03*
Y1000D03*
Y1100D03*
Y1200D03*
Y1300D03*
Y1400D03*
Y1500D03*
Y1600D03*
Y1700D03*
Y1800D03*
Y1900D03*
Y2000D03*
Y2100D03*
Y2200D03*
X1625Y900D03*
X1525D03*
X1625Y1000D03*
X1525D03*
X2525Y2150D03*
X2325D03*
X2525Y1950D03*
X2325D03*
X2525Y1850D03*
X2325D03*
Y1750D03*
X2525D03*
Y900D03*
X2325D03*
X2525Y700D03*
X2325D03*
X2525Y600D03*
X2325D03*
Y500D03*
X2525D03*
X1250Y1800D03*
X1050D03*
X1250Y1600D03*
X1050D03*
X1250Y1500D03*
X1050D03*
Y1400D03*
X1250D03*
X1050Y500D03*
X1250D03*
X1050Y700D03*
X1250D03*
X1050Y800D03*
X1250D03*
Y900D03*
X1050D03*
D18*
X2525Y2300D03*
D19*
X2525Y200D03*
X2325D03*
X200Y2075D03*
Y2300D03*
X2325Y1300D03*
X2525D03*
D13*
X2079Y212D02*
Y246D01*
X2113D01*
X2137D02*
X2171D01*
Y212D01*
Y188D02*
Y154D01*
X2137D01*
X2113D02*
X2079D01*
Y188D01*
%LPD*%
D10*
X1050Y500D02*
Y225D01*
X264D01*
X1250Y500D02*
Y175D01*
X200D01*
X1150Y1000D02*
X1100Y1050D01*
X1050D02*
X425D01*
X1300Y2300D02*
X1975D01*
Y2200D01*
X1050Y1050D02*
Y1400D01*
X1100Y1050D02*
Y1450D01*
X1050Y1500D01*
X264Y225D02*
X266Y2300D01*
X200D01*
Y175D02*
Y2075D01*
X1300Y2300D02*
Y1600D01*
X1250D01*
X1100Y1550D02*
X1050Y1600D01*
X425Y1050D02*
X325Y1000D01*
X1250D02*
X1375D01*
X1100Y1550D02*
X1200D01*
X1250Y1000D02*
X1200Y1050D01*
Y1550D01*
D14*
X1150Y2200D03*
Y2100D03*
Y2000D03*
Y1900D03*
Y1800D03*
Y1700D03*
Y1600D03*
Y1500D03*
Y1400D03*
X2325Y2300D03*
X1550Y800D03*
X2525Y1500D03*
X2325D03*
X1550Y700D03*
Y600D03*
Y500D03*
Y400D03*
Y300D03*
Y200D03*
X1850D03*
Y300D03*
Y400D03*
Y500D03*
Y600D03*
Y700D03*
Y800D03*
X1150Y1300D03*
Y1200D03*
Y1100D03*
Y1000D03*
Y900D03*
Y800D03*
Y700D03*
Y600D03*
Y500D03*
Y400D03*
Y300D03*
X1750D03*
Y400D03*
Y500D03*
Y600D03*
Y700D03*
Y800D03*
Y900D03*
Y1000D03*
Y1100D03*
Y1200D03*
Y1300D03*
Y1400D03*
Y1500D03*
Y1600D03*
Y1700D03*
Y1800D03*
Y1900D03*
Y2000D03*
Y2100D03*
Y2200D03*
X325D03*
Y2100D03*
Y2000D03*
Y1900D03*
Y1800D03*
Y1700D03*
Y1600D03*
Y1500D03*
Y1400D03*
Y1300D03*
Y1200D03*
Y1100D03*
Y1000D03*
Y900D03*
Y800D03*
Y700D03*
Y600D03*
Y500D03*
Y400D03*
Y300D03*
X925D03*
Y400D03*
Y500D03*
Y600D03*
Y700D03*
Y800D03*
Y900D03*
Y1000D03*
Y1100D03*
Y1200D03*
Y1300D03*
Y1400D03*
Y1500D03*
Y1600D03*
Y1700D03*
Y1800D03*
Y1900D03*
Y2000D03*
Y2100D03*
Y2200D03*
X2200Y1125D03*
Y925D03*
X2100Y1025D03*
X2200Y825D03*
Y625D03*
X2100Y725D03*
X1375Y2200D03*
Y2100D03*
Y2000D03*
Y1900D03*
Y1800D03*
Y1700D03*
Y1600D03*
Y1500D03*
Y1400D03*
Y1300D03*
Y1200D03*
Y1100D03*
Y1000D03*
Y900D03*
Y800D03*
Y700D03*
Y600D03*
Y500D03*
Y400D03*
Y300D03*
X1975D03*
Y400D03*
Y500D03*
Y600D03*
Y700D03*
Y800D03*
Y900D03*
Y1000D03*
Y1100D03*
Y1200D03*
Y1300D03*
Y1400D03*
Y1500D03*
Y1600D03*
Y1700D03*
Y1800D03*
Y1900D03*
Y2000D03*
Y2100D03*
Y2200D03*
X1625Y900D03*
X1525D03*
X1625Y1000D03*
X1525D03*
X2525Y2150D03*
X2325D03*
X2525Y1950D03*
X2325D03*
X2525Y1850D03*
X2325D03*
Y1750D03*
X2525D03*
Y900D03*
X2325D03*
X2525Y700D03*
X2325D03*
X2525Y600D03*
X2325D03*
Y500D03*
X2525D03*
X1250Y1800D03*
X1050D03*
X1250Y1600D03*
X1050D03*
X1250Y1500D03*
X1050D03*
Y1400D03*
X1250D03*
X1050Y500D03*
X1250D03*
X1050Y700D03*
X1250D03*
X1050Y800D03*
X1250D03*
Y900D03*
X1050D03*
D15*
X2525Y2300D03*
D16*
X2525Y200D03*
X2325D03*
X200Y2075D03*
Y2300D03*
X2325Y1300D03*
X2525D03*
X2125Y200D03*
M02*
